_________________________  Visit us at _________________________
  
http://p2pdl.com  ____________________________  http://p2pdl.com


Masquerade 2012 BRRip 480p x264 AAC - VYTO


Original Title: Gwanghae, Wangyidoen namja
Genre: Drama | History
Plot: 17th century Korean King Gwanghae of the Joseon Dynasty, who is afraid of being assassinated,
and a clown named Ha-sun, who resembles the monarch. When the King is drugged and in coma, Ha-sun is
secretly whisked to the court, where he is forced to live as the King.
Director: Chang-min Choo
Stars: Byung-hun Lee, Seung-yong Ryoo, Hyo-ju Han.
Rated: N/a


Info: 
http://www.imdb.com/title/tt2290840/

Trailer:


Format                         : MPEG-4
File size                      : 402 MiB
Duration                       : 2h 11mn
Overall bit rate mode          : Variable
Overall bit rate               : 428 Kbps
Source                         : 720p.BluRay.DTS.x264-PHD

Video
Format                         : AVC
Bit rate                       : 384 Kbps
Width                          : 720 pixels
Height                         : 304 pixels
Display aspect ratio           : 2.35:1
Frame rate mode                : Constant
Frame rate                     : 23.976 fps
Stream size                    : 361 MiB (90%)
Writing library                : x264 core 130 r2273

Audio
Format                         : AAC
Bit rate mode                  : Variable
Bit rate                       : 40.0 Kbps
Channel(s)                     : 2 channels
Channel positions              : Front: L R
Sampling rate                  : 44.1 KHz
Stream size                    : 37.6 MiB (9%)
Language                       : Korean

Subtitle                       : Yes(English)
 
http://www.ultraimg.com/images/38vP.png 
http://www.ultraimg.com/images/zarT.png 
http://www.ultraimg.com/images/CUuP.png 
http://www.ultraimg.com/images/FHjGc.png


----------------------------------------------------------------------------------------------------


Encoded using revolutionary 10bit encoding, which enables us to provide you more crispier 
and sharper images at small sizes, just make sure you follow our instructions without a fault.
Recommend to you to use latest version of VLC player. Install K-Lite Codec Pack or shark007 codecs
in case of any kind of problem in playback (For non-VLC Media Player users). Alternatively, install
Core AVC codecs, the fastest decoder that there is coupled with Community Center Codec Pack and play
on Windows Media Player Classic. Check sample to be sure.
Enjoy!

Encoder Notes:Looking For Early Access To Anything You Can Provide DVDScr, R5, DVDR, BluRay, Direct
Audio, Music Releases and Seedboxes. We require dedicated servers, so as to do more 
and fast releases of movies.
If You Got anything to offer please contact us at "contact@p2pdl.com".

Face book Fan Page:   
http://www.fb.me/p2pdl